<?xml version="1.0" encoding="utf-8"?>
<!-- Generator: Adobe Illustrator 16.0.0, SVG Export Plug-In . SVG Version: 6.00 Build 0)  -->
<!DOCTYPE svg PUBLIC "-//W3C//DTD SVG 1.1//EN" "http://www.w3.org/Graphics/SVG/1.1/DTD/svg11.dtd">
<svg version="1.1" id="Layer_1" xmlns="http://www.w3.org/2000/svg" xmlns:xlink="http://www.w3.org/1999/xlink" x="0px" y="0px"
	 width="611.995px" height="128.281px" viewBox="0 485.093 611.995 128.281" enable-background="new 0 485.093 611.995 128.281"
	 xml:space="preserve">
<g>
	<g opacity="0.46">
		<path fill="#07601F" d="M343.188,515.77"/>
	</g>
	<g>
		<path d="M295.213,501.494c0,1.956,1.425,3.545,3.173,3.545c1.747,0,3.17-1.589,3.17-3.545s-1.423-3.546-3.17-3.546
			C296.638,497.946,295.213,499.535,295.213,501.494z M297.453,501.494c0-0.707,0.428-1.308,0.937-1.308
			c0.506,0,0.932,0.601,0.932,1.308s-0.426,1.308-0.932,1.308C297.881,502.802,297.453,502.201,297.453,501.494z"/>
	</g>
	<path d="M304.735,509.422c-21.056,0-41.407-3.03-60.646-8.65c5.749,7.275,17.499,16.254,40.95,17.882
		c40.518,2.813,82.162-9.004,82.162-9.004l-0.293-9.333C347.218,506.23,326.349,509.422,304.735,509.422z"/>
	<g>
		<path fill="none" d="M124.111,512.254c0,2.48-0.687,5.382-2.053,8.709c-3.775,9.245-11.953,17.659-24.531,25.238
			c5.069,3.514,7.604,7.914,7.604,13.202c0,2.737-0.687,5.805-2.053,9.209c-3.552,8.911-10.53,16.142-20.928,21.688
			c-9.031,4.881-18.872,7.746-29.528,8.597c-2.442,0.169-4.986,0.329-7.633,0.479c-2.647,0.151-5.486,0.226-8.518,0.226
			c-4.367,0-8.531-0.143-12.491-0.417c-3.959-0.279-7.789-0.678-11.489-1.195l11.102-19.221c1.96,0.409,3.439,0.63,4.441,0.668
			c2.368-4.999,5.745-12.295,10.13-21.889c4.382-9.591,9.924-21.663,16.624-36.218c-1.407,0.223-2.71,0.452-3.913,0.695
			c-1.204,0.241-2.287,0.49-3.246,0.749l5.107-20.556c4.031-0.851,8.455-1.499,13.267-1.942c8.509-0.757,15.226-1.297,20.146-1.623
			c4.921-0.326,8.142-0.488,9.659-0.488C114.672,498.165,124.111,502.862,124.111,512.254z M81.481,564.747
			c0-4.995-4.885-7.494-14.654-7.494c-1.63,0-4.516,0.224-8.66,0.667l-9.434,21.48c1.551,0.075,2.81,0.131,3.773,0.167
			s1.684,0.054,2.167,0.054c5.549,0,11.043-1.128,16.484-3.385C78.04,573.314,81.481,569.485,81.481,564.747z M96.469,524.506
			c0-3.772-4.628-5.661-13.877-5.661c-1.553,0-3.498,0.056-5.828,0.166c-2.332,0.11-5.125,0.315-8.382,0.61l6.384,3.995
			l-8.383,17.034c16.835-1.405,26.717-6.103,29.641-14.094C96.32,525.893,96.469,525.21,96.469,524.506z"/>
		<path fill="none" d="M85.329,486.311l-20.426,1.644c-5.299,0.488-10.242,1.213-14.726,2.161c-4.637,0.979-8.306,4.52-9.447,9.121
			l-5.107,20.556c-0.228,0.91-0.335,1.83-0.335,2.744c0,2.397,0.95,4.637,2.278,6.665c-4.907,10.69-10.649,23.206-10.649,23.206
			s-3.863,8.344-6.8,14.694c-2.982,0.894-5.661,2.762-7.23,5.481L1.783,591.804C0.619,593.812,0,596.061,0,598.3
			c0,1.811,0.405,3.613,1.256,5.281c1.904,3.732,5.351,6.222,9.52,6.656l12.333,1.283c0.013,0.002,13.362,0.445,13.362,0.445
			l9.215-0.243l7.791-0.488c12.459-0.993,24.041-4.374,34.555-10.056c12.941-6.901,21.889-16.33,26.535-27.99
			c1.943-4.831,2.933-9.481,2.933-13.788c0-3.097-0.538-6.827-2.186-10.674c8.601-7.003,14.775-14.713,18.197-23.093
			c1.997-4.855,2.969-9.24,2.969-13.383c0-9.882-5.285-26.455-40.673-26.455L85.329,486.311z M86.96,510.993l8.844-0.462
			c10.422,0,14.53,1.59,15.867,2.31c-0.095,0.605-0.335,1.675-1.054,3.422c-2.739,6.706-9.288,13.204-19.476,19.345
			c-3.595,2.166-5.846,6.006-5.979,10.199c-0.002,0.133-0.004,0.264-0.004,0.395c0,4.049,1.983,7.849,5.321,10.167
			c2.283,1.578,2.283,2.456,2.283,3.037c0,0.637-0.151,2.082-1.164,4.597c-2.472,6.199-7.46,11.221-15.271,15.388
			c-7.527,4.067-15.813,6.472-24.691,7.179c-0.031,0.002-7.347,0.461-7.347,0.461s-4.768,0.124-6.55,0.171
			c0.533-0.763,1.049-1.555,1.47-2.472l10.199-22.039L66.02,526.5c0.781-1.699,1.17-3.519,1.17-5.328
			c0-2.645-0.833-5.261-2.503-7.421c-0.228-0.293-0.514-0.514-0.759-0.781c1.069-0.129,2.096-0.277,3.208-0.378
			C67.098,512.594,86.96,510.993,86.96,510.993z"/>
		<path fill="none" d="M56.854,545.622c-4.567,0.336-8.167,3.132-10.006,7.323l-9.434,21.48c-1.641,3.737-1.359,8.041,0.797,11.505
			c2.157,3.465,5.857,5.644,9.932,5.823l3.89,0.172l2.647,0.063c7.161,0,14.303-1.454,21.225-4.328
			c15.631-6.644,17.952-17.207,17.952-22.915c0-4.66-1.947-19.861-27.021-19.861L56.854,545.622z"/>
		<path fill="none" d="M76.183,506.66l-8.914,0.646c-5.337,0.386-9.708,4.151-11,9.342c-0.239,0.968-0.354,1.94-0.354,2.904
			c0,2.976,1.15,5.825,3.095,8.074c-1.837,3.734-3.721,7.565-3.721,7.565c-0.851,1.729-1.27,3.597-1.27,5.461
			c0,2.444,0.722,4.878,2.147,6.967c2.51,3.683,6.807,5.729,11.248,5.359c21.654-1.808,35.068-9.099,39.969-21.623
			c0.083-0.392,1.454-6.848,1.454-6.848c0-6.978-4.173-12.844-11.165-15.698c-3.899-1.589-8.691-2.33-15.08-2.33L76.183,506.66z
			 M107.64,530.809c-0.07,0.191-0.187,0.355-0.259,0.545c-0.002,0.011-0.045,0.209-0.045,0.209c-0.011,0.05-0.018,0.081-0.018,0.097
			C107.321,531.814,107.823,530.312,107.64,530.809z"/>
	</g>
	<g>
		<path fill="none" d="M185.201,542.426c-4.072,9.727-10.436,18.141-19.093,25.24c-9.51,7.879-19.057,11.815-28.642,11.815
			c-11.367,0-17.049-5.87-17.049-17.613c0-10.397,4.887-26.366,14.661-47.903c1.369-2.922,3.424-7.417,6.163-13.486l18.206-0.223
			c-1.999,4.662-3.986,9.24-5.965,13.737c-1.981,4.498-3.971,9.076-5.968,13.738c-5.402,13.47-8.104,22.499-8.104,27.086
			c0,4.628,1.848,6.94,5.551,6.94c4.549,0,8.844-2.015,12.878-6.044c3.181-3.179,5.828-7.265,7.937-12.252l18.872-43.472
			l18.206-0.276L185.201,542.426z"/>
		<path fill="none" d="M202.664,487.344l-18.206,0.277c-4.855,0.074-9.222,2.984-11.156,7.441c0,0-1.396,3.22-1.664,3.834
			c-0.214-1.934-0.765-3.838-1.879-5.515c-2.321-3.494-6.269-5.545-10.463-5.493l-18.206,0.223c-4.786,0.059-9.132,2.927-11.12,7.28
			l-6.089,13.323c-10.672,23.517-15.829,40.858-15.829,53.153c0,18.494,11.271,29.98,29.416,29.98c12.5,0,24.79-4.93,36.531-14.658
			c10.15-8.322,17.774-18.427,22.613-29.99c0.007-0.018,17.675-42.765,17.675-42.765c1.589-3.847,1.137-8.233-1.202-11.678
			C210.74,489.316,206.828,487.281,202.664,487.344z"/>
	</g>
	<g>
		<path fill="none" d="M247.731,518.143c-6.994,0.223-10.641,0.369-10.933,0.443c-5.069,0.778-7.604,2.645-7.604,5.601
			c0,0.297,0.072,1.101,0.223,2.413c0.146,1.312,0.369,3.188,0.667,5.627c0.554,3.919,0.943,7.005,1.166,9.261
			s0.333,3.717,0.333,4.383c0,3.179-0.648,6.544-1.942,10.091c-1.184,3.068-2.424,5.416-3.719,7.044
			c-4.292,5.62-11.01,10.093-20.148,13.423c-3.703,1.294-7.55,2.358-11.545,3.189c-3.996,0.83-8.178,1.396-12.542,1.69l5.882-20.362
			c3.329-0.369,6.271-0.811,8.826-1.331c2.552-0.518,4.736-1.092,6.55-1.722c2.181-0.738,3.662-1.663,4.441-2.773
			c0.813-1.073,1.22-2.755,1.22-5.049c0-0.997-0.02-1.949-0.054-2.856c-0.038-0.905-0.092-1.785-0.167-2.638
			c-0.185-1.443-0.628-4.05-1.333-7.822c-0.705-3.181-1.056-5.826-1.056-7.935c0-5.547,2.535-11.075,7.606-16.588
			c4.329-4.771,9.416-8.378,15.262-10.82c4.478-1.887,10.379-2.83,17.707-2.83c1.776,0,3.516,0.057,5.215,0.167
			c1.702,0.112,3.35,0.24,4.941,0.39L247.731,518.143z"/>
		<path fill="none" d="M224.057,490.019c-7.469,3.12-14.084,7.804-19.622,13.906c-7.156,7.779-10.813,16.181-10.813,24.9
			c0,3.039,0.439,6.51,1.346,10.607c-0.042-0.191-0.047-0.21-0.081-0.405c0,0,1.097,6.395,1.178,6.87c0-0.005,0-0.108-0.009-0.234
			c0,0,0.014,0.221,0.018,0.288c0.002,0.014,0.036,0.205,0.036,0.205c-0.029-0.174-0.032-0.172-0.034-0.189
			c0.016,0.238,0.031,0.504,0.058,0.961c-1.139,0.298-2.21,0.574-2.21,0.574l-7.725,1.159c-4.781,0.716-9.177,4.214-10.519,8.86
			l-5.882,20.362c-0.329,1.13-0.486,2.287-0.486,3.433c0,2.789,0.943,5.537,2.74,7.762c2.53,3.143,6.436,4.849,10.46,4.578
			c4.898-0.331,9.686-0.979,14.226-1.922c4.498-0.937,8.91-2.157,13.112-3.624c11.5-4.188,20.165-10.087,25.894-17.59
			c1.949-2.442,3.775-5.81,5.429-10.094c1.866-5.111,2.771-9.934,2.771-14.548l-0.394-5.594c0,0-1.146-9.132-1.197-9.558
			c2.82-0.105,5.767-0.216,5.767-0.216c4.612-0.174,8.814-2.901,10.787-7.073l8.993-18.998c0.815-1.72,1.227-3.572,1.227-5.418
			c0-2.103-0.533-4.191-1.618-6.064c-2.04-3.519-5.592-5.803-9.648-6.122l-5.267-0.417c-0.016-0.002-6.031-0.193-6.031-0.193
			C237.489,486.219,230.126,487.461,224.057,490.019z M217.507,562.224c-0.088,0.126-0.178,0.25-0.272,0.371
			c0.063-0.083,0.106-0.185,0.167-0.268C217.43,562.286,217.479,562.264,217.507,562.224z M196.066,545.906
			c0,0.004,0.009,0.052,0.011,0.056c0-0.004-0.009-0.063-0.011-0.067C196.066,545.897,196.066,545.903,196.066,545.906z"/>
	</g>
	<g>
		<path fill="none" d="M309.919,517.78l-17.652,0.223c-4.774,10.555-9.204,20.878-13.292,30.972
			c-4.088,10.093-8.077,20.173-11.959,30.246l-19.539,1.389c3.885-10.843,7.89-21.364,12.016-31.561
			c4.126-10.195,8.466-20.347,13.015-30.449l-17.038,0.11l8.27-17.909l54.45-0.943L309.919,517.78z"/>
		<path fill="none" d="M317.976,487.486l-54.45,0.942c-4.745,0.084-9.026,2.873-11.016,7.182l-8.271,17.908
			c-0.763,1.65-1.139,3.422-1.139,5.187c0,2.339,0.664,4.669,1.97,6.699c1.972,3.059,5.195,4.977,8.745,5.461
			c-1.922,4.526-3.964,9.03-5.788,13.542c-4.171,10.305-8.274,21.082-12.196,32.031c-0.486,1.357-0.723,2.767-0.723,4.169
			c0,2.665,0.86,5.297,2.512,7.476c2.525,3.329,6.564,5.159,10.733,4.862l19.539-1.39c4.743-0.335,8.914-3.462,10.663-7.887
			l11.883-30.051c3.082-7.613,6.449-15.453,9.936-23.35c4.804-0.059,9.701-0.122,9.701-0.122c4.768-0.059,9.076-2.856,11.075-7.185
			l8.271-17.927c0.761-1.65,1.137-3.42,1.137-5.183c0-2.363-0.678-4.716-2.008-6.757
			C326.223,489.532,322.228,487.414,317.976,487.486z"/>
	</g>
	<g>
		<path fill="none" d="M369.944,515.328c-5.218,0.113-10.204,0.307-14.961,0.583c-4.756,0.277-9.316,0.655-13.681,1.135
			c-0.852,1.771-1.711,3.772-2.58,6.006s-1.785,4.678-2.748,7.338c4.33-0.516,8.576-0.887,12.738-1.107s8.314-0.371,12.461-0.445
			l-7.381,17.868h-2.832c-3.664-0.074-7.338,0.029-11.021,0.307c-3.683,0.278-7.521,0.716-11.516,1.31
			c-1.148,2.116-2.175,4.297-3.08,6.544c-0.907,2.246-1.733,4.592-2.472,7.036c4.811-0.554,9.604-0.981,14.378-1.276
			c4.771-0.295,9.603-0.479,14.487-0.554l-7.382,18.008c-7.845,0.146-15.745,0.478-23.7,0.986c-7.955,0.514-16.187,1.263-24.7,2.249
			c4.072-11.127,8.252-21.932,12.545-32.412c4.29-10.48,8.823-20.955,13.598-31.417l-6.714,0.112l6.604-16.804
			c10.212-0.223,19.943-0.619,29.195-1.193c9.249-0.571,18.226-1.283,26.922-2.134L369.944,515.328z"/>
		<path fill="none" d="M376.899,485.151c-8.526,0.836-17.437,1.542-26.48,2.101c-9.047,0.563-18.701,0.957-28.7,1.173
			c-4.986,0.107-9.421,3.201-11.244,7.84l-6.604,16.804c-0.573,1.461-0.854,2.996-0.854,4.524c0,2.485,0.747,4.948,2.203,7.051
			c0.059,0.085,0.142,0.144,0.205,0.229c-2.827,6.458-5.742,12.918-8.372,19.34c-4.324,10.558-8.601,21.612-12.713,32.852
			c-0.507,1.38-0.752,2.818-0.752,4.247c0,2.74,0.909,5.445,2.656,7.66c2.658,3.37,6.875,5.121,11.136,4.628
			c8.266-0.959,16.362-1.697,24.067-2.192c7.746-0.497,15.532-0.821,23.141-0.966c4.932-0.092,9.339-3.108,11.21-7.673l7.381-18.008
			c0.646-1.576,0.975-3.244,0.975-4.898c0-1.718-0.484-3.372-1.195-4.948c0.918-1.026,1.72-2.167,2.265-3.488l7.381-17.869
			c0.648-1.568,0.977-3.232,0.977-4.882c0-0.521-0.164-1.024-0.229-1.542c3.401-1.02,6.348-3.399,7.84-6.668l8.16-17.868
			c0.75-1.641,1.117-3.393,1.117-5.135c0-2.536-0.779-5.056-2.301-7.188C385.6,486.676,381.303,484.72,376.899,485.151z"/>
	</g>
	<g>
		<path fill="none" d="M439.074,513.884c0,3.446-1.261,7.32-3.775,11.619c-7.029,12.232-17.891,21.311-32.583,27.239
			c6.364,4.597,10.38,12.417,12.048,23.46l-20.928,5.673c-0.074-2.891-0.268-5.438-0.583-7.645s-0.768-4.104-1.359-5.697
			c-1.63-4.151-4.552-7.562-8.771-10.231c-2.219,4.597-4.137,8.712-5.746,12.343s-2.987,6.839-4.133,9.616l-19.206,1.276
			c3.184-7.153,7.271-16.019,12.266-26.6c4.995-10.58,11.064-23.042,18.206-37.385c-1.073,0.187-2.063,0.362-2.969,0.528
			c-0.905,0.167-1.73,0.324-2.47,0.474l4.165-16.845c7.253-1.52,15.3-2.28,24.144-2.28
			C428.508,499.432,439.074,504.249,439.074,513.884z M416.704,522.367c0-3.847-3.903-5.771-11.71-5.771h-1.499h-0.89
			c-0.259,0-0.576,0.038-0.945,0.112s-0.738,0.11-1.107,0.11h-0.945h-1.22l3.052,1.887l-10.436,22.425
			c5.254-0.738,10.101-2.368,14.542-4.885c5.513-3.109,8.99-6.641,10.436-10.601C416.463,524.533,416.704,523.441,416.704,522.367z"
			/>
		<path fill="none" d="M380.701,489.604c-4.65,0.975-8.331,4.526-9.472,9.139l-4.165,16.844c-0.236,0.959-0.351,1.93-0.351,2.896
			c0,1.735,0.445,3.417,1.154,4.999c-5.393,11.079-12.747,26.177-12.747,26.177c0,0.003-12.381,26.854-12.381,26.854
			c-0.754,1.637-1.125,3.372-1.125,5.101c0,2.461,0.75,4.903,2.201,7.012c2.474,3.595,6.692,5.547,11.044,5.257l19.205-1.276
			c3.61-0.239,6.882-2.17,9.038-5.014c0.887,1.607,2.093,3.032,3.574,4.079c3.012,2.132,6.832,3.108,10.396,2.141L418,588.139
			c5.454-1.477,9.135-6.424,9.135-11.925c0-0.612-0.047-1.234-0.142-1.855c-1.013-6.717-2.875-12.531-5.421-17.587
			c10.28-6.528,18.56-14.856,24.451-25.103c3.581-6.123,5.418-12.134,5.418-17.783c0-9.646-5.524-17.699-15.158-22.092
			c-6.979-3.183-16.433-4.729-28.903-4.729C397.73,487.063,388.753,487.918,380.701,489.604z M407.38,511.799
			c12.898,0,17.729,1.958,19.226,2.803c-0.157,0.817-0.603,2.301-1.982,4.659c-5.706,9.93-14.373,17.105-26.535,22.013
			c-3.39,1.366-5.879,4.174-7.016,7.559c-0.46-0.319-0.855-0.682-1.335-0.985c-1.639-1.036-3.48-1.564-5.357-1.778
			c5.114-10.503,11.205-23.006,11.205-23.006c0.847-1.737,1.268-3.624,1.268-5.499c0-1.805-0.531-3.545-1.304-5.195
			C399.295,512.006,403.231,511.799,407.38,511.799z"/>
		<path fill="none" d="M403.495,504.227h-0.89c0,0-1.114,0.117-2.108,0.223c-0.1,0-2.112,0-2.112,0
			c-5.528,0-10.386,3.669-11.896,8.988c-0.319,1.121-0.473,2.256-0.473,3.379c0,1.4,0.32,2.748,0.774,4.05
			c-3.091,6.643-6.998,15.043-6.998,15.043c-0.774,1.664-1.154,3.444-1.154,5.216c0,2.606,0.821,5.195,2.429,7.363
			c2.696,3.642,7.171,5.517,11.66,4.887c6.775-0.955,13.139-3.098,18.917-6.373c7.978-4.497,13.281-10.167,15.807-16.819
			c1.051-2.555,1.618-5.18,1.618-7.817c0-4.257-1.735-18.141-24.076-18.141h-1.497V504.227z M427.454,530.185
			c-0.047,0.12-0.063,0.241-0.114,0.36c0.092-0.218,0.183-0.438,0.264-0.664C427.563,529.987,427.493,530.081,427.454,530.185z"/>
	</g>
	<g>
		<path fill="none" d="M525.913,497.462c-6.438,7.584-13.238,16.001-20.398,25.25c-7.163,9.249-14.83,19.403-23.008,30.463
			c-13.506,18.35-24.459,34.294-32.859,47.833l-23.978-2.275c3.181-4.995,7.048-10.922,11.599-17.783
			c4.55-6.863,10.008-14.753,16.374-23.669c3.921-5.582,6.982-9.902,9.184-12.957c2.204-3.05,3.489-4.873,3.861-5.465
			c2.553-3.478,4.956-6.688,7.214-9.628c2.256-2.941,4.403-5.686,6.438-8.24h-3.498c-1.776,0-3.879,0.02-6.301,0.056
			s-5.263,0.11-8.518,0.221c-7.291,0.226-12.214,0.333-14.767,0.333l8.659-21.031c14.318-0.259,27.28-0.637,38.882-1.139
			C506.403,498.933,516.771,498.275,525.913,497.462z"/>
		<path fill="none" d="M524.814,485.143c-8.928,0.795-19.203,1.445-30.544,1.932c-11.39,0.493-24.367,0.871-38.575,1.13
			c-4.927,0.088-9.335,3.098-11.212,7.655l-8.659,21.031c-1.59,3.86-1.264,8.266,1.098,11.708c2.364,3.441,6.164,5.463,10.339,5.368
			c0,0,3.946-0.088,7.879-0.176c-1.022,1.438-11.615,16.378-11.615,16.378c-6.363,8.912-11.955,16.995-16.561,23.944l-11.726,17.974
			c-1.321,2.026-1.987,4.343-1.987,6.673c0,1.834,0.414,3.678,1.242,5.396c1.88,3.9,5.7,6.479,10.011,6.888l23.978,2.275
			c4.675,0.444,9.199-1.801,11.678-5.791c8.183-13.187,19.053-29.009,32.311-47.023c0.003,0,22.828-30.225,22.828-30.225
			c7.019-9.064,13.762-17.413,20.045-24.814c3.248-3.824,3.862-9.236,1.553-13.69C534.586,487.317,529.814,484.697,524.814,485.143z
			 M495.338,511.788c1.112-0.048,2.087-0.117,3.179-0.167c-0.937,1.197-1.833,2.298-2.78,3.519c0,0-1.301,1.722-3.248,4.302
			c-0.167-1.311-0.469-2.607-1.065-3.827c-0.677-1.389-1.651-2.541-2.741-3.565C490.935,511.966,493.19,511.88,495.338,511.788z"/>
	</g>
	<g>
		<path fill="none" d="M587.167,518.043l-30.028,0.943c-2.111,2.996-3.924,5.67-5.44,8.019c-1.518,2.35-2.775,4.411-3.775,6.186
			c3.553-0.777,7.068-1.166,10.549-1.166c6.179,0,11.194,1.261,15.043,3.774c4.476,2.924,6.715,7.307,6.715,13.15
			c0,3.662-0.999,7.989-2.998,12.983c-4.034,9.878-11.379,18.661-22.035,26.355c-10.841,7.729-21.535,11.595-32.081,11.595
			c-6.589,0-11.843-1.518-15.764-4.55c-4.7-3.362-7.051-8.133-7.051-14.31c0-3.588,0.797-7.304,2.389-11.153l22.368-1.942
			c-0.369,1.445-0.554,2.701-0.554,3.774c0,4.626,2.773,6.938,8.324,6.938c4.774,0,9.585-1.979,14.431-5.94
			c4.995-3.921,7.494-8.195,7.494-12.819c0-4.328-2.85-6.494-8.547-6.494c-6.33,0-12.343,3.184-18.042,9.547l-17.317-6.273
			c2.666-4.55,5.569-9.314,8.714-14.292c3.145-4.977,6.568-10.424,10.271-16.347c3.7-5.735,6.984-10.805,9.853-15.207
			c2.865-4.403,5.468-8.214,7.798-11.436c3.255,0.226,6.327,0.333,9.215,0.333c1.997,0,4.948-0.09,8.854-0.274
			c3.903-0.183,8.871-0.457,14.903-0.824c2.109-0.069,4.743-0.197,7.91-0.382c3.163-0.183,6.929-0.439,11.296-0.771L587.167,518.043
			z"/>
		<path fill="none" d="M598.722,485.129l-11.075,0.755c-0.009,0-7.921,0.382-7.948,0.385l-14.73,0.814
			c-0.007,0-8.274,0.261-8.274,0.261l-8.365-0.306c-4.247-0.153-8.477,1.578-10.87,5.09l-8.142,11.937l-9.882,15.251
			c-0.095,0.148-10.332,16.443-10.332,16.443l-8.932,14.649c-1.18,1.936-1.771,4.097-1.771,6.284c0,0.514,0.2,1.016,0.263,1.529
			c-3.302,1.141-6.037,3.607-7.405,6.921c-2.206,5.338-3.327,10.682-3.327,15.881c0,10.15,4.185,18.517,12.07,24.234
			c6.091,4.631,13.854,6.991,23.11,6.991c13.121,0,26.328-4.673,39.26-13.893c12.571-9.074,21.402-19.743,26.308-31.748
			c2.646-6.613,3.914-12.362,3.914-17.659c0-7.226-2.363-13.553-6.654-18.492c0.162-0.007,1.614-0.049,1.614-0.049
			c4.181-0.133,8.016-2.37,10.184-5.947l12.488-20.583c1.185-1.954,1.771-4.153,1.771-6.353c0-2.246-0.612-4.497-1.825-6.492
			C607.772,487.09,603.329,484.814,598.722,485.129z M536.654,538.405c0.334,0.728,0.608,1.475,1.088,2.147
			c0.351,0.498,0.797,0.89,1.213,1.315c-1.98,0.47-3.9,1.253-5.805,2.113C534.636,541.622,535.05,540.961,536.654,538.405z
			 M559.048,544.447c3.345,0.067,6.044,0.624,7.7,1.706c0.646,0.424,1.112,0.728,1.112,2.796c0,0.964-0.245,3.015-1.359,6.285
			C565.483,551.002,563.088,547.086,559.048,544.447z M514.541,581.253c1.249,2.31,2.969,4.388,5.27,6.018
			c-1.803-0.248-3.61-0.729-4.896-1.725c-0.122-0.092-0.241-0.183-0.367-0.27c-1.002-0.719-1.758-1.526-1.846-3.863
			C513.584,581.337,513.623,581.332,514.541,581.253z M500.152,605.391c-0.056-0.04-0.095-0.092-0.148-0.135
			c-0.067-0.05-0.148-0.086-0.218-0.138C499.907,605.213,500.029,605.303,500.152,605.391z"/>
	</g>
	<g>
		<path d="M124.111,512.254c0,2.48-0.687,5.382-2.053,8.709c-3.775,9.245-11.953,17.659-24.531,25.238
			c5.069,3.514,7.604,7.914,7.604,13.202c0,2.737-0.687,5.805-2.053,9.209c-3.552,8.911-10.53,16.142-20.928,21.688
			c-9.031,4.881-18.872,7.746-29.528,8.597c-2.442,0.169-4.986,0.329-7.633,0.479c-2.647,0.151-5.486,0.226-8.518,0.226
			c-4.367,0-8.531-0.143-12.491-0.417c-3.959-0.279-7.789-0.678-11.489-1.195l11.102-19.221c1.96,0.409,3.439,0.63,4.441,0.668
			c2.368-4.999,5.745-12.295,10.13-21.889c4.382-9.591,9.924-21.663,16.624-36.218c-1.407,0.223-2.71,0.452-3.913,0.695
			c-1.204,0.241-2.287,0.49-3.246,0.749l5.107-20.556c4.031-0.851,8.455-1.499,13.267-1.942c8.509-0.757,15.226-1.297,20.146-1.623
			c4.921-0.326,8.142-0.488,9.659-0.488C114.672,498.165,124.111,502.862,124.111,512.254z M81.481,564.747
			c0-4.995-4.885-7.494-14.654-7.494c-1.63,0-4.516,0.224-8.66,0.667l-9.434,21.48c1.551,0.075,2.81,0.131,3.773,0.167
			s1.684,0.054,2.167,0.054c5.549,0,11.043-1.128,16.484-3.385C78.04,573.314,81.481,569.485,81.481,564.747z M96.469,524.506
			c0-3.772-4.628-5.661-13.877-5.661c-1.553,0-3.498,0.056-5.828,0.166c-2.332,0.11-5.125,0.315-8.382,0.61l6.384,3.995
			l-8.383,17.034c16.835-1.405,26.717-6.103,29.641-14.094C96.32,525.893,96.469,525.21,96.469,524.506z"/>
		<path d="M85.533,489.397l-20.358,1.641c-5.17,0.478-9.99,1.184-14.359,2.107c-3.478,0.733-6.231,3.39-7.086,6.84l-5.107,20.557
			c-0.171,0.685-0.252,1.373-0.252,2.06c0,2.37,1.011,4.657,2.674,6.434c-4.923,10.724-11.318,24.659-11.318,24.659
			s-4.45,9.614-7.435,16.067c-2.757,0.448-5.335,1.952-6.73,4.369L4.459,593.353c-0.871,1.506-1.334,3.191-1.334,4.873
			c0,1.357,0.301,2.708,0.941,3.96c1.427,2.8,4.011,4.666,7.138,4.992l12.124,1.263c0.011,0.003,13.144,0.439,13.144,0.439
			l9.042-0.238l7.75-0.486c11.993-0.959,23.165-4.217,33.296-9.693c12.293-6.555,20.766-15.45,25.135-26.41
			c1.796-4.473,2.712-8.734,2.712-12.645c0-3.284-0.7-7.367-2.964-11.493c9.249-7.082,15.729-14.927,19.205-23.439
			c1.841-4.484,2.742-8.486,2.742-12.217c0-10.658-6.519-23.365-37.583-23.365L85.533,489.397z M86.755,507.909l9.049-0.468
			c11.205,0,19.03,1.979,19.03,4.813c0,0.704-0.176,2.31-1.357,5.184c-2.992,7.332-9.967,14.328-20.741,20.819
			c-2.694,1.623-4.383,4.505-4.484,7.649c-0.002,0.099-0.004,0.198-0.004,0.295c0,3.036,1.488,5.889,3.991,7.624
			c3.611,2.503,3.611,4.58,3.611,5.58c0,1.051-0.239,2.901-1.384,5.751c-2.749,6.896-8.205,12.437-16.685,16.962
			c-7.892,4.266-16.592,6.793-25.902,7.536c-0.022,0-7.417,0.464-7.417,0.464l-7.995,0.209c0,0-5.272-0.174-8.676-0.288
			c0.331-0.574,0.439-0.759,0.734-1.268c3.618,0.181,6.29-1.909,7.888-5.361l10.181-22.002l16.612-36.195
			c0.585-1.272,0.878-2.641,0.878-3.996c0-1.982-0.624-3.943-1.877-5.566c-0.74-0.959-1.706-1.634-2.703-2.229
			c0.382-1.533,0.459-1.848,0.776-3.117c2.096-0.312,4.284-0.577,6.568-0.788C66.823,509.515,86.755,507.909,86.755,507.909z"/>
		<path d="M57.18,548.695c-3.421,0.254-6.125,2.352-7.505,5.492l-9.434,21.481c-1.229,2.802-1.018,6.03,0.599,8.628
			c1.618,2.598,4.392,4.231,7.451,4.367l3.858,0.171l2.528,0.061c6.75,0,13.492-1.378,20.038-4.093
			c13.272-5.641,16.045-14.019,16.045-20.059c0-5.042-2.332-16.77-23.931-16.77L57.18,548.695z M66.828,566.529
			c1.144,0,2.044,0.052,2.858,0.117c-0.589,0.329-1.271,0.68-2.154,1.054c-1.344,0.559-2.715,0.88-4.081,1.265
			c0.443-1.006,0.63-1.434,0.986-2.241C65.463,566.638,66.828,566.529,66.828,566.529z"/>
		<path d="M76.327,509.748l-8.779,0.635c-4.002,0.291-7.282,3.115-8.25,7.01c-0.18,0.723-0.266,1.454-0.266,2.177
			c0,2.879,1.427,5.589,3.764,7.37c-2.328,4.729-4.734,9.616-4.734,9.616c-0.637,1.296-0.954,2.696-0.954,4.095
			c0,1.832,0.542,3.657,1.611,5.224c1.884,2.763,5.108,4.298,8.437,4.019c20.711-1.729,32.925-8.203,37.384-19.743
			c0.063-0.298,1.205-5.648,1.205-5.648c0-5.675-3.456-10.472-9.243-12.833c-3.469-1.415-8.021-2.104-13.911-2.104L76.327,509.748z
			 M104.736,529.746c-0.052,0.142-0.142,0.266-0.196,0.407c0,0.009-0.045,0.221-0.045,0.232
			C104.498,530.5,104.874,529.372,104.736,529.746z"/>
	</g>
	<g>
		<path d="M185.201,542.426c-4.072,9.727-10.436,18.141-19.093,25.24c-9.51,7.879-19.057,11.815-28.642,11.815
			c-11.367,0-17.049-5.87-17.049-17.613c0-10.397,4.887-26.366,14.661-47.903c1.369-2.922,3.424-7.417,6.163-13.486l18.206-0.223
			c-1.999,4.662-3.986,9.24-5.965,13.737c-1.981,4.498-3.971,9.076-5.968,13.738c-5.402,13.47-8.104,22.499-8.104,27.086
			c0,4.628,1.848,6.94,5.551,6.94c4.549,0,8.844-2.015,12.878-6.044c3.181-3.179,5.828-7.265,7.937-12.252l18.872-43.472
			l18.206-0.276L185.201,542.426z"/>
		<path d="M202.713,490.438l-18.206,0.276c-3.645,0.054-6.917,2.237-8.369,5.58l-18.873,43.472c-1.666,3.938-3.669,7.07-5.985,9.384
			c-0.696,0.696-1.314,1.173-1.911,1.607c0.828-3.435,2.656-9.364,6.751-19.572c0.004-0.005,5.85-13.454,5.85-13.454
			c0-0.002,6.003-13.823,6.003-13.823c0.513-1.178,0.763-2.429,0.763-3.674c0-1.799-0.524-3.588-1.556-5.135
			c-1.74-2.62-4.7-4.159-7.845-4.119l-18.206,0.223c-3.59,0.043-6.85,2.195-8.342,5.459l-6.109,13.366
			c-10.469,23.073-15.537,39.998-15.537,51.841c0,16.837,9.841,26.89,26.326,26.89c11.761,0,23.388-4.693,34.56-13.949
			c9.767-8.007,17.089-17.706,21.733-28.802c0.005-0.013,17.668-42.75,17.668-42.75c1.19-2.886,0.853-6.177-0.9-8.759
			C208.769,491.916,205.833,490.39,202.713,490.438z M129.693,561.868c0-1.528,0.148-3.46,0.54-5.866
			c0.39,7.563,4.272,12.126,9.146,14.001c-0.637,0.047-1.276,0.205-1.916,0.205C131.73,570.205,129.693,568.945,129.693,561.868z"/>
	</g>
	<g>
		<path d="M247.731,518.143c-6.994,0.223-10.641,0.369-10.933,0.443c-5.069,0.778-7.604,2.645-7.604,5.601
			c0,0.297,0.072,1.101,0.223,2.413c0.146,1.312,0.369,3.188,0.667,5.627c0.554,3.919,0.943,7.005,1.166,9.261
			s0.333,3.717,0.333,4.383c0,3.179-0.648,6.544-1.942,10.091c-1.184,3.068-2.424,5.416-3.719,7.044
			c-4.292,5.62-11.01,10.093-20.148,13.423c-3.703,1.294-7.55,2.358-11.545,3.189c-3.996,0.83-8.178,1.396-12.542,1.69l5.882-20.362
			c3.329-0.369,6.271-0.811,8.826-1.331c2.552-0.518,4.736-1.092,6.55-1.722c2.181-0.738,3.662-1.663,4.441-2.773
			c0.813-1.073,1.22-2.755,1.22-5.049c0-0.997-0.02-1.949-0.054-2.856c-0.038-0.905-0.092-1.785-0.167-2.638
			c-0.185-1.443-0.628-4.05-1.333-7.822c-0.705-3.181-1.056-5.826-1.056-7.935c0-5.547,2.535-11.075,7.606-16.588
			c4.329-4.771,9.416-8.378,15.262-10.82c4.478-1.887,10.379-2.83,17.707-2.83c1.776,0,3.516,0.057,5.215,0.167
			c1.702,0.112,3.35,0.24,4.941,0.39L247.731,518.143z"/>
		<path d="M225.257,492.868c-7.057,2.949-13.301,7.37-18.53,13.135c-6.629,7.207-10.012,14.901-10.012,22.822
			c0,2.812,0.418,6.063,1.274,9.938c-0.034-0.145-0.038-0.155-0.061-0.302c0,0,1.155,6.744,1.215,7.106
			c0.002-0.005,0-0.081-0.007-0.178c0,0,0.011,0.178,0.016,0.219c0,0.004,0.024,0.15,0.024,0.15
			c-0.022-0.133-0.022-0.131-0.024-0.142c0.022,0.364,0.126,1.985,0.126,1.985c0,0.016,0.018,0.963,0.031,1.684
			c-1.359,0.355-4.768,1.245-4.768,1.245l-8,1.199c-3.586,0.538-6.883,3.16-7.89,6.646l-5.882,20.362
			c-0.243,0.846-0.365,1.713-0.365,2.575c0,2.093,0.709,4.152,2.055,5.82c1.9,2.357,4.829,3.638,7.845,3.434
			c4.759-0.322,9.405-0.948,13.808-1.864c4.365-0.907,8.646-2.091,12.718-3.516c10.901-3.969,19.093-9.522,24.457-16.55
			c1.79-2.242,3.462-5.344,5.004-9.332c1.722-4.719,2.566-9.183,2.566-13.435l-0.38-5.292l-1.211-9.652
			c0,0.005,0.002,0.007,0.002,0.005c0-0.009-0.198-1.687-0.376-3.174c1.715-0.065,9.134-0.345,9.134-0.345
			c3.456-0.133,6.611-2.177,8.09-5.304l8.993-18.998c0.61-1.287,0.92-2.679,0.92-4.065c0-1.573-0.403-3.143-1.215-4.549
			c-1.528-2.639-4.194-4.354-7.235-4.592l-5.188-0.41c-0.011,0-5.826-0.187-5.826-0.187
			C237.907,489.31,230.94,490.473,225.257,492.868z M232.433,509.976c2.501-1.056,5.796-1.715,9.837-1.98
			c-0.221,0.468-0.306,0.646-0.504,1.064c-5.871,0.209-6.298,0.295-7.252,0.536c0.288-0.072,0.581-0.133,0.875-0.179
			c-1.29,0.198-2.354,0.516-3.439,0.824C232.12,510.167,232.26,510.048,232.433,509.976z M217.876,550.075l-0.061-3.217
			c-0.002-0.022-0.205-3.267-0.205-3.269c0-0.016-1.447-8.531-1.447-8.531c-0.025-0.151-0.029-0.151-0.061-0.302
			c-0.691-3.127-0.835-4.952-0.835-5.934c0-3.12,1.735-6.589,5.157-10.308c0.466-0.515,1.013-0.861,1.497-1.339
			c-1.702,2.843-2.006,5.659-2.006,7.01l0.282,3.464c0-0.016,0.675,5.695,0.675,5.695c0.024,0.18,1.144,9.051,1.144,9.051
			l0.288,3.512c0,2.039-0.464,4.364-1.38,6.877c-1.081,2.798-1.945,4.047-2.265,4.448c-1.517,1.985-3.525,3.774-5.92,5.411
			c0.731-0.669,1.542-1.283,2.111-2.071C216.867,557.839,217.876,554.415,217.876,550.075z M198.234,568.709
			c0,0,3.102-0.819,5.38-1.423c-0.356,0.14-0.655,0.297-1.02,0.428c-2.483,0.869-5.227,1.542-7.964,2.192
			c0.085-0.293,0.119-0.407,0.198-0.683C196.383,568.99,198.234,568.709,198.234,568.709z M199.143,545.575
			c0,0.002,0.009,0.04,0.009,0.043c0-0.003-0.007-0.048-0.009-0.048V545.575z M214.848,560.573c-0.036,0.048-0.045,0.11-0.076,0.153
			c0.067-0.09,0.137-0.185,0.202-0.279C214.94,560.497,214.882,560.524,214.848,560.573z"/>
	</g>
	<g>
		<path d="M309.919,517.78l-17.652,0.223c-4.774,10.555-9.204,20.878-13.292,30.972c-4.088,10.093-8.077,20.173-11.959,30.246
			l-19.539,1.389c3.885-10.843,7.89-21.364,12.016-31.561c4.126-10.195,8.466-20.347,13.015-30.449l-17.038,0.11l8.27-17.909
			l54.45-0.943L309.919,517.78z"/>
		<path d="M318.027,490.579l-54.45,0.943c-3.559,0.061-6.769,2.154-8.261,5.387l-8.27,17.908c-1.33,2.882-1.094,6.242,0.624,8.912
			c1.718,2.67,4.682,4.272,7.856,4.254c0,0,2.076-0.014,2.888-0.02c-2.53,5.877-5.15,11.738-7.525,17.603
			c-4.153,10.267-8.241,21.004-12.148,31.914c-0.362,1.018-0.542,2.075-0.542,3.129c0,1.997,0.644,3.971,1.886,5.605
			c1.896,2.496,4.923,3.869,8.047,3.646l19.539-1.389c3.559-0.253,6.686-2.598,7.998-5.916l11.903-30.101
			c3.331-8.223,6.982-16.711,10.775-25.254c5.229-0.064,11.688-0.146,11.688-0.146c3.576-0.046,6.807-2.142,8.306-5.39l8.271-17.927
			c0.569-1.238,0.853-2.565,0.853-3.888c0-1.771-0.509-3.536-1.508-5.066C324.213,492.114,321.219,490.524,318.027,490.579z
			 M288.454,509.647c-2.003,0.913-3.696,2.451-4.639,4.533c-0.725,1.607-1.398,3.191-2.112,4.795
			c0.004-0.131,0.081-0.248,0.081-0.379c0-1.769-0.509-3.529-1.501-5.06c-1.15-1.765-2.868-3.006-4.81-3.665
			C279.819,509.796,282.024,509.755,288.454,509.647z"/>
	</g>
	<g>
		<path d="M369.944,515.328c-5.218,0.113-10.204,0.307-14.961,0.583c-4.756,0.277-9.316,0.655-13.681,1.135
			c-0.852,1.771-1.711,3.772-2.58,6.006s-1.785,4.678-2.748,7.338c4.33-0.516,8.576-0.887,12.738-1.107s8.314-0.371,12.461-0.445
			l-7.381,17.868h-2.832c-3.664-0.074-7.338,0.029-11.021,0.307c-3.683,0.278-7.521,0.716-11.516,1.31
			c-1.148,2.116-2.175,4.297-3.08,6.544c-0.907,2.246-1.733,4.592-2.472,7.036c4.811-0.554,9.604-0.981,14.378-1.276
			c4.771-0.295,9.603-0.479,14.487-0.554l-7.382,18.008c-7.845,0.146-15.745,0.478-23.7,0.986c-7.955,0.514-16.187,1.263-24.7,2.249
			c4.072-11.127,8.252-21.932,12.545-32.412c4.29-10.48,8.823-20.955,13.598-31.417l-6.714,0.112l6.604-16.804
			c10.212-0.223,19.943-0.619,29.195-1.193c9.249-0.571,18.226-1.283,26.922-2.134L369.944,515.328z"/>
		<path d="M377.199,488.229c-8.565,0.838-17.509,1.549-26.591,2.109c-9.086,0.565-18.785,0.961-28.827,1.178
			c-3.738,0.081-7.063,2.399-8.43,5.882l-6.604,16.804c-0.43,1.094-0.644,2.246-0.644,3.392c0,1.864,0.563,3.712,1.654,5.288
			c0.369,0.533,0.813,0.995,1.274,1.432c-3.098,7.034-6.256,14.075-9.121,21.071c-4.311,10.523-8.574,21.537-12.673,32.74
			c-0.378,1.038-0.565,2.114-0.565,3.188c0,2.054,0.685,4.081,1.995,5.745c1.992,2.527,5.152,3.84,8.351,3.471
			c8.315-0.966,16.466-1.708,24.228-2.206c7.793-0.499,15.626-0.826,23.279-0.97c3.701-0.07,7.006-2.332,8.408-5.756l7.381-18.008
			c0.486-1.185,0.731-2.434,0.731-3.676c0-1.821-0.529-3.622-1.605-5.162c-0.114-0.162-0.266-0.281-0.387-0.435
			c1.438-0.994,2.608-2.384,3.307-4.071l7.381-17.869c0.486-1.177,0.731-2.424,0.731-3.662c0-1.423-0.423-2.798-1.075-4.081
			c0.069-0.002,0.738-0.029,0.738-0.029c3.498-0.137,6.784-2.235,8.236-5.42l8.159-17.869c0.563-1.23,0.84-2.543,0.84-3.854
			c0-1.902-0.585-3.79-1.729-5.391C383.727,489.372,380.501,487.904,377.199,488.229z M335.531,509.649
			c-1.079,0.851-1.977,1.954-2.589,3.383c0,0-0.847,1.968-1.652,3.843c-0.105-1.566-0.538-3.117-1.43-4.473
			c-0.479-0.733-1.069-1.359-1.715-1.918c0.112-0.288,0.133-0.338,0.238-0.612C330.776,509.8,333.188,509.739,335.531,509.649z
			 M326.728,530.134c0,0.038-0.022,0.076-0.022,0.114c0,2.053,0.72,4.086,2.012,5.783c0.835,1.103,1.934,1.953,3.158,2.563
			c-2.557,0.29-4.814,0.547-4.814,0.547c-2.273,0.259-4.034,1.114-5.366,2.616C323.349,537.877,325.012,534.012,326.728,530.134z
			 M313.705,560.902c-0.05,0.366-0.189,0.733-0.189,1.099c0,2.055,0.757,4.059,2.092,5.771c0.723,0.93,1.656,1.623,2.672,2.17
			c-2.753,0.188-5.551,0.409-8.381,0.652C311.157,567.317,312.429,564.116,313.705,560.902z"/>
	</g>
	<g>
		<path d="M439.074,513.884c0,3.446-1.261,7.32-3.775,11.619c-7.029,12.232-17.891,21.311-32.583,27.239
			c6.364,4.597,10.38,12.417,12.048,23.46l-20.928,5.673c-0.074-2.891-0.268-5.438-0.583-7.645s-0.768-4.104-1.359-5.697
			c-1.63-4.151-4.552-7.562-8.771-10.231c-2.219,4.597-4.137,8.712-5.746,12.343s-2.987,6.839-4.133,9.616l-19.206,1.276
			c3.184-7.153,7.271-16.019,12.266-26.6c4.995-10.58,11.064-23.042,18.206-37.385c-1.073,0.187-2.063,0.362-2.969,0.528
			c-0.905,0.167-1.73,0.324-2.47,0.474l4.165-16.845c7.253-1.52,15.3-2.28,24.144-2.28
			C428.508,499.432,439.074,504.249,439.074,513.884z M416.704,522.367c0-3.847-3.903-5.771-11.71-5.771h-1.499h-0.89
			c-0.259,0-0.576,0.038-0.945,0.112s-0.738,0.11-1.107,0.11h-0.945h-1.22l3.052,1.887l-10.436,22.425
			c5.254-0.738,10.101-2.368,14.542-4.885c5.513-3.109,8.99-6.641,10.436-10.601C416.463,524.533,416.704,523.441,416.704,522.367z"
			/>
		<path d="M381.334,492.632c-3.489,0.729-6.249,3.395-7.104,6.854l-4.164,16.844c-0.176,0.718-0.264,1.447-0.264,2.172
			c0,1.736,0.646,3.363,1.569,4.843c-5.231,10.746-13.456,27.633-13.456,27.633l-12.352,26.787
			c-0.567,1.229-0.844,2.529-0.844,3.826c0,1.844,0.56,3.676,1.649,5.259c1.853,2.696,5.018,4.159,8.284,3.941l19.205-1.276
			c3.478-0.232,6.584-2.52,7.96-5.72c0,0,1.273-2.965,2.441-5.682c0.143,1.906,0.302,3.998,0.302,3.998
			c0.207,2.76,1.644,5.508,3.903,7.106c2.258,1.598,5.123,2.329,7.795,1.606l20.928-5.672c4.09-1.11,6.85-4.819,6.85-8.945
			c0-0.462-0.033-0.926-0.104-1.394c-1.132-7.489-3.358-13.765-6.462-19.015c11.067-6.46,19.757-15.048,25.868-25.675
			c3.312-5.663,5.009-11.146,5.009-16.243c0-4.925-1.736-13.983-13.354-19.277c-6.563-2.996-15.6-4.452-27.619-4.452
			C397.941,490.153,389.181,490.988,381.334,492.632z M407.38,508.708c11.431,0,17.144,1.511,19.924,2.775
			c2.494,1.14,2.494,1.869,2.494,2.4c0,0.99-0.326,3.21-2.505,6.938c-6.054,10.534-15.217,18.143-28.046,23.317
			c-3.133,1.266-5.33,4.131-5.737,7.482c-0.048,0.374-0.067,0.75-0.067,1.121c0,0.93,0.369,1.776,0.635,2.649
			c-1.765-1.808-3.71-3.486-5.992-4.93c-2.254-1.427-4.984-1.873-7.546-1.121c-0.603,0.176-1.069,0.583-1.613,0.867
			c5.354-10.996,13.889-28.521,13.889-28.521c0.635-1.304,0.952-2.717,0.952-4.124c0-1.979-0.624-3.941-1.853-5.571
			c-0.374-0.492-0.928-0.747-1.378-1.152c0.105-0.425,0.119-0.477,0.218-0.885C395.927,509.213,401.393,508.708,407.38,508.708z
			 M400.591,565.305c-0.479-1.227-1.082-2.365-1.704-3.495c1.928,1.922,3.489,4.531,4.674,7.817
			c-0.809,0.221-0.831,0.226-1.661,0.45C401.543,568.373,401.129,566.757,400.591,565.305z"/>
		<path d="M403.495,507.317h-0.89c0,0-1.301,0.14-2.086,0.223c-0.062,0-2.132,0-2.132,0c-4.148,0-7.791,2.755-8.923,6.742
			c-0.239,0.842-0.354,1.692-0.354,2.534c0,1.466,0.38,2.886,1.033,4.174c-3.021,6.493-7.55,16.223-7.55,16.223
			c-0.581,1.247-0.867,2.582-0.867,3.912c0,1.954,0.617,3.895,1.823,5.52c2.021,2.732,5.38,4.14,8.745,3.667
			c6.389-0.898,12.386-2.918,17.826-6.001c7.354-4.146,12.209-9.29,14.465-15.269c0.907-2.19,1.394-4.433,1.394-6.677
			c0-3.529-1.516-15.05-20.986-15.05h-1.499V507.317z M424.587,529.044c-0.038,0.092-0.048,0.185-0.088,0.274
			c0.069-0.162,0.138-0.328,0.198-0.497C424.668,528.897,424.618,528.968,424.587,529.044z"/>
	</g>
	<g>
		<path d="M525.913,497.462c-6.438,7.584-13.238,16.001-20.398,25.25c-7.163,9.249-14.83,19.403-23.008,30.463
			c-13.506,18.35-24.459,34.294-32.859,47.833l-23.978-2.275c3.181-4.995,7.048-10.922,11.599-17.783
			c4.55-6.863,10.008-14.753,16.374-23.669c3.921-5.582,6.982-9.902,9.184-12.957c2.204-3.05,3.489-4.873,3.861-5.465
			c2.553-3.478,4.956-6.688,7.214-9.628c2.256-2.941,4.403-5.686,6.438-8.24h-3.498c-1.776,0-3.879,0.02-6.301,0.056
			s-5.263,0.11-8.518,0.221c-7.291,0.226-12.214,0.333-14.767,0.333l8.659-21.031c14.318-0.259,27.28-0.637,38.882-1.139
			C506.403,498.933,516.771,498.275,525.913,497.462z"/>
		<path d="M525.092,488.222c-8.973,0.797-19.298,1.452-30.686,1.94c-11.415,0.493-24.422,0.876-38.652,1.133
			c-3.698,0.065-7.003,2.323-8.409,5.742l-8.66,21.031c-1.19,2.896-0.947,6.199,0.824,8.78c1.771,2.582,4.623,4.098,7.752,4.027
			c0,0,12.32-0.276,14.056-0.317c-1.178,1.571-2.107,2.81-2.107,2.81c-0.047,0.065-0.321,0.475-0.366,0.538l-12.79,18.041
			c-6.357,8.9-11.929,16.952-16.516,23.872l-11.692,17.927c-0.992,1.521-1.49,3.258-1.49,5.004c0,1.378,0.312,2.763,0.93,4.05
			c1.412,2.927,4.275,4.857,7.508,5.166l23.978,2.275c3.509,0.331,6.901-1.351,8.761-4.344
			c8.223-13.259,19.143-29.146,32.448-47.226l22.87-30.283c7.048-9.103,13.82-17.49,20.133-24.923
			c2.436-2.868,2.896-6.927,1.166-10.27C532.418,489.854,528.842,487.889,525.092,488.222z M495.203,508.699
			c3.493-0.148,6.685-0.345,9.979-0.524c-2.316,2.913-4.619,5.778-7.001,8.86l-23.129,30.624
			c-12.061,16.388-22.103,30.936-30.163,43.58c-1.101-0.106-1.646-0.156-3.062-0.293c1.27-1.945,3.176-4.869,3.176-4.869
			c4.471-6.744,9.921-14.618,16.194-23.405c0.042-0.059,9.156-12.919,9.156-12.919l4.191-5.956
			c-0.052,0.074-0.321,0.479-0.376,0.554l7.094-9.47c0.004-0.003,6.334-8.108,6.334-8.108c2.184-2.793,2.608-6.625,1.056-9.812
			c-1.554-3.188-4.764-5.245-8.309-5.245h-3.498l-6.442,0.057c0,0-8.923,0.229-9.159,0.233c0.441-1.073,0.574-1.391,0.943-2.287
			C474.186,509.465,485.308,509.125,495.203,508.699z"/>
	</g>
	<g>
		<path d="M587.167,518.043l-30.028,0.943c-2.111,2.996-3.924,5.67-5.44,8.019c-1.518,2.35-2.775,4.411-3.775,6.186
			c3.553-0.777,7.068-1.166,10.549-1.166c6.179,0,11.194,1.261,15.043,3.774c4.476,2.924,6.715,7.307,6.715,13.15
			c0,3.662-0.999,7.989-2.998,12.983c-4.034,9.878-11.379,18.661-22.035,26.355c-10.841,7.729-21.535,11.595-32.081,11.595
			c-6.589,0-11.843-1.518-15.764-4.55c-4.7-3.362-7.051-8.133-7.051-14.31c0-3.588,0.797-7.304,2.389-11.153l22.368-1.942
			c-0.369,1.445-0.554,2.701-0.554,3.774c0,4.626,2.773,6.938,8.324,6.938c4.774,0,9.585-1.979,14.431-5.94
			c4.995-3.921,7.494-8.195,7.494-12.819c0-4.328-2.85-6.494-8.547-6.494c-6.33,0-12.343,3.184-18.042,9.547l-17.317-6.273
			c2.666-4.55,5.569-9.314,8.714-14.292c3.145-4.977,6.568-10.424,10.271-16.347c3.7-5.735,6.984-10.805,9.853-15.207
			c2.865-4.403,5.468-8.214,7.798-11.436c3.255,0.226,6.327,0.333,9.215,0.333c1.997,0,4.948-0.09,8.854-0.274
			c3.903-0.183,8.871-0.457,14.903-0.824c2.109-0.069,4.743-0.197,7.91-0.382c3.163-0.183,6.929-0.439,11.296-0.771L587.167,518.043
			z"/>
		<path d="M598.955,488.211l-11.129,0.759c-0.006,0-7.685,0.373-7.685,0.373c-0.252,0.012-15.027,0.829-15.027,0.829
			c-0.005,0-8.419,0.263-8.419,0.263l-8.578-0.313c-3.186-0.117-6.357,1.184-8.153,3.815l-8.055,11.813l-9.875,15.241
			c-0.069,0.11-10.316,16.416-10.316,16.416l-8.878,14.562c-0.884,1.452-1.325,3.073-1.325,4.714c0,1.045,0.178,2.098,0.535,3.12
			c0.106,0.295,0.358,0.488,0.491,0.768c-0.038,0.005-0.655,0.057-0.655,0.057c-3.45,0.299-6.446,2.496-7.771,5.697
			c-2.051,4.959-3.091,9.904-3.091,14.696c0,9.128,3.751,16.64,10.816,21.751c5.547,4.228,12.695,6.384,21.274,6.384
			c12.464,0,25.069-4.481,37.468-13.318c12.079-8.721,20.556-18.938,25.238-30.402c2.487-6.22,3.687-11.593,3.687-16.488
			c0-9.018-3.777-16.25-10.919-20.916c-0.241-0.158-0.524-0.264-0.772-0.417c4.203-0.133,9.641-0.302,9.641-0.302
			c3.139-0.099,6.013-1.775,7.643-4.459l12.488-20.583c0.89-1.463,1.328-3.113,1.328-4.763c0-1.687-0.459-3.375-1.368-4.869
			C605.744,489.683,602.411,487.977,598.955,488.211z M582.532,507.799c-0.266,0.439-0.459,0.757-0.687,1.13
			c-6.974,0.221-24.997,0.786-24.997,0.786c-2.972,0.095-5.625,1.47-7.294,3.93l-5.647,8.324c-0.002,0.005-4.069,6.672-4.069,6.672
			c-0.887,1.454-1.319,3.058-1.319,4.66c0,1.889,0.604,3.774,1.767,5.411c2.157,3.023,5.988,4.331,9.617,3.538
			c2.888-0.632,5.771-0.952,8.566-0.952c4.315,0,7.67,0.762,9.97,2.265c1.552,1.014,2.513,2.267,2.513,5.385
			c0,1.688-0.405,4.714-2.335,9.537c-1.646,4.029-4.045,7.905-7.153,11.598c1.949-3.8,2.564-7.375,2.564-10.206
			c0-7.273-4.669-15.771-17.824-15.771c-7.212,0-13.982,2.818-20.245,8.157c-0.552-0.198-0.68-0.243-1.287-0.466
			c1.186-1.945,2.73-4.475,2.73-4.475l10.293-16.386c-0.067,0.108,9.761-15.059,9.761-15.059c0-0.002,2.645-3.886,4.804-7.051
			c2.197,0.079,4.437,0.16,4.437,0.16l9.29-0.286l15.029-0.83C580.943,507.878,581.601,507.844,582.532,507.799z M544.072,562.973
			c-0.748,0.91-1.68,1.752-2.544,2.429c-2.208,1.804-4.183,2.756-6.058,3.327C538.449,565.503,541.287,563.617,544.072,562.973z
			 M516.416,577.987c2.058,5.353,7.023,9.927,16.41,9.927c1.641,0,3.272-0.178,4.9-0.479c-4.975,2.035-9.869,3.17-14.611,3.17
			c-4.455,0-7.85-0.878-10.089-2.611c-0.09-0.067-0.183-0.138-0.274-0.205c-1.648-1.178-3.172-2.813-3.172-6.767
			c0-0.79,0.155-1.634,0.283-2.467C512.531,578.325,513.218,578.267,516.416,577.987z M501.951,602.879
			c-0.043-0.032-0.069-0.072-0.112-0.104c-0.05-0.038-0.112-0.063-0.162-0.102C501.767,602.741,501.859,602.809,501.951,602.879z"/>
	</g>
	<path fill="#FFFFFF" d="M124.111,512.254c0,2.48-0.687,5.382-2.053,8.709c-3.775,9.245-11.953,17.659-24.531,25.238
		c5.069,3.514,7.604,7.914,7.604,13.202c0,2.737-0.687,5.805-2.053,9.209c-3.552,8.911-10.53,16.142-20.928,21.688
		c-9.031,4.881-18.872,7.746-29.528,8.597c-2.442,0.169-4.986,0.329-7.633,0.479c-2.647,0.151-5.486,0.226-8.518,0.226
		c-4.367,0-8.531-0.143-12.491-0.417c-3.959-0.279-7.789-0.678-11.489-1.195l11.102-19.221c1.96,0.409,3.439,0.63,4.441,0.668
		c2.368-4.999,5.745-12.295,10.13-21.889c4.382-9.591,9.924-21.663,16.624-36.218c-1.407,0.223-2.71,0.452-3.913,0.695
		c-1.204,0.241-2.287,0.49-3.246,0.749l5.107-20.556c4.031-0.851,8.455-1.499,13.267-1.942c8.509-0.757,15.226-1.297,20.146-1.623
		c4.921-0.326,8.142-0.488,9.659-0.488C114.672,498.165,124.111,502.862,124.111,512.254z M81.481,564.747
		c0-4.995-4.885-7.494-14.654-7.494c-1.63,0-4.516,0.224-8.66,0.667l-9.434,21.48c1.551,0.075,2.81,0.131,3.773,0.167
		s1.684,0.054,2.167,0.054c5.549,0,11.043-1.128,16.484-3.385C78.04,573.314,81.481,569.485,81.481,564.747z M96.469,524.506
		c0-3.772-4.628-5.661-13.877-5.661c-1.553,0-3.498,0.056-5.828,0.166c-2.332,0.11-5.125,0.315-8.382,0.61l6.384,3.995
		l-8.383,17.034c16.835-1.405,26.717-6.103,29.641-14.094C96.32,525.893,96.469,525.21,96.469,524.506z"/>
	<path fill="#FFFFFF" d="M185.201,542.426c-4.072,9.727-10.436,18.141-19.093,25.24c-9.51,7.879-19.057,11.815-28.642,11.815
		c-11.367,0-17.049-5.87-17.049-17.613c0-10.397,4.887-26.366,14.661-47.903c1.369-2.922,3.424-7.417,6.163-13.486l18.206-0.223
		c-1.999,4.662-3.986,9.24-5.965,13.737c-1.981,4.498-3.971,9.076-5.968,13.738c-5.402,13.47-8.104,22.499-8.104,27.086
		c0,4.628,1.848,6.94,5.551,6.94c4.549,0,8.844-2.015,12.878-6.044c3.181-3.179,5.828-7.265,7.937-12.252l18.872-43.472
		l18.206-0.276L185.201,542.426z"/>
	<path fill="#FFFFFF" d="M247.731,518.143c-6.994,0.223-10.641,0.369-10.933,0.443c-5.069,0.778-7.604,2.645-7.604,5.601
		c0,0.297,0.072,1.101,0.223,2.413c0.146,1.312,0.369,3.188,0.667,5.627c0.554,3.919,0.943,7.005,1.166,9.261
		s0.333,3.717,0.333,4.383c0,3.179-0.648,6.544-1.942,10.091c-1.184,3.068-2.424,5.416-3.719,7.044
		c-4.292,5.62-11.01,10.093-20.148,13.423c-3.703,1.294-7.55,2.358-11.545,3.189c-3.996,0.83-8.178,1.396-12.542,1.69l5.882-20.362
		c3.329-0.369,6.271-0.811,8.826-1.331c2.552-0.518,4.736-1.092,6.55-1.722c2.181-0.738,3.662-1.663,4.441-2.773
		c0.813-1.073,1.22-2.755,1.22-5.049c0-0.997-0.02-1.949-0.054-2.856c-0.038-0.905-0.092-1.785-0.167-2.638
		c-0.185-1.443-0.628-4.05-1.333-7.822c-0.705-3.181-1.056-5.826-1.056-7.935c0-5.547,2.535-11.075,7.606-16.588
		c4.329-4.771,9.416-8.378,15.262-10.82c4.478-1.887,10.379-2.83,17.707-2.83c1.776,0,3.516,0.057,5.215,0.167
		c1.702,0.112,3.35,0.24,4.941,0.39L247.731,518.143z"/>
	<path fill="#FFFFFF" d="M309.919,517.78l-17.652,0.223c-4.774,10.555-9.204,20.878-13.292,30.972
		c-4.088,10.093-8.077,20.173-11.959,30.246l-19.539,1.389c3.885-10.843,7.89-21.364,12.016-31.561
		c4.126-10.195,8.466-20.347,13.015-30.449l-17.038,0.11l8.27-17.909l54.45-0.943L309.919,517.78z"/>
	<path fill="#FFFFFF" d="M369.944,515.328c-5.218,0.113-10.204,0.307-14.961,0.583c-4.756,0.277-9.316,0.655-13.681,1.135
		c-0.852,1.771-1.711,3.772-2.58,6.006s-1.785,4.678-2.748,7.338c4.33-0.516,8.576-0.887,12.738-1.107s8.314-0.371,12.461-0.445
		l-7.381,17.868h-2.832c-3.664-0.074-7.338,0.029-11.021,0.307c-3.683,0.278-7.521,0.716-11.516,1.31
		c-1.148,2.116-2.175,4.297-3.08,6.544c-0.907,2.246-1.733,4.592-2.472,7.036c4.811-0.554,9.604-0.981,14.378-1.276
		c4.771-0.295,9.603-0.479,14.487-0.554l-7.382,18.008c-7.845,0.146-15.745,0.478-23.7,0.986c-7.955,0.514-16.187,1.263-24.7,2.249
		c4.072-11.127,8.252-21.932,12.545-32.412c4.29-10.48,8.823-20.955,13.598-31.417l-6.714,0.112l6.604-16.804
		c10.212-0.223,19.943-0.619,29.195-1.193c9.249-0.571,18.226-1.283,26.922-2.134L369.944,515.328z"/>
	<path fill="#FFFFFF" d="M439.074,513.884c0,3.446-1.261,7.32-3.775,11.619c-7.029,12.232-17.891,21.311-32.583,27.239
		c6.364,4.597,10.38,12.417,12.048,23.46l-20.928,5.673c-0.074-2.891-0.268-5.438-0.583-7.645s-0.768-4.104-1.359-5.697
		c-1.63-4.151-4.552-7.562-8.771-10.231c-2.219,4.597-4.137,8.712-5.746,12.343s-2.987,6.839-4.133,9.616l-19.206,1.276
		c3.184-7.153,7.271-16.019,12.266-26.6c4.995-10.58,11.064-23.042,18.206-37.385c-1.073,0.187-2.063,0.362-2.969,0.528
		c-0.905,0.167-1.73,0.324-2.47,0.474l4.165-16.845c7.253-1.52,15.3-2.28,24.144-2.28
		C428.508,499.432,439.074,504.249,439.074,513.884z M416.704,522.367c0-3.847-3.903-5.771-11.71-5.771h-1.499h-0.89
		c-0.259,0-0.576,0.038-0.945,0.112s-0.738,0.11-1.107,0.11h-0.945h-1.22l3.052,1.887l-10.436,22.425
		c5.254-0.738,10.101-2.368,14.542-4.885c5.513-3.109,8.99-6.641,10.436-10.601C416.463,524.533,416.704,523.441,416.704,522.367z"
		/>
	<path fill="#0DA871" stroke="#000000" stroke-miterlimit="10" d="M525.913,497.462c-6.438,7.584-13.238,16.001-20.398,25.25
		c-7.163,9.249-14.83,19.403-23.008,30.463c-13.506,18.35-24.459,34.294-32.859,47.833l-23.978-2.275
		c3.181-4.995,7.048-10.922,11.599-17.783c4.55-6.863,10.008-14.753,16.374-23.669c3.921-5.582,6.982-9.902,9.184-12.957
		c2.204-3.05,3.489-4.873,3.861-5.465c2.553-3.478,4.956-6.688,7.214-9.628c2.256-2.941,4.403-5.686,6.438-8.24h-3.498
		c-1.776,0-3.879,0.02-6.301,0.056s-5.263,0.11-8.518,0.221c-7.291,0.226-12.214,0.333-14.767,0.333l8.659-21.031
		c14.318-0.259,27.28-0.637,38.882-1.139C506.403,498.933,516.771,498.275,525.913,497.462z"/>
	<path fill="#0DA871" stroke="#000000" stroke-miterlimit="10" d="M587.167,518.043l-30.028,0.943
		c-2.111,2.996-3.924,5.67-5.44,8.019c-1.518,2.35-2.775,4.411-3.775,6.186c3.553-0.777,7.068-1.166,10.549-1.166
		c6.179,0,11.194,1.261,15.043,3.774c4.476,2.924,6.715,7.307,6.715,13.15c0,3.662-0.999,7.989-2.998,12.983
		c-4.034,9.878-11.379,18.661-22.035,26.355c-10.841,7.729-21.535,11.595-32.081,11.595c-6.589,0-11.843-1.518-15.764-4.55
		c-4.7-3.362-7.051-8.133-7.051-14.31c0-3.588,0.797-7.304,2.389-11.153l22.368-1.942c-0.369,1.445-0.554,2.701-0.554,3.774
		c0,4.626,2.773,6.938,8.324,6.938c4.774,0,9.585-1.979,14.431-5.94c4.995-3.921,7.494-8.195,7.494-12.819
		c0-4.328-2.85-6.494-8.547-6.494c-6.33,0-12.343,3.184-18.042,9.547l-17.317-6.273c2.666-4.55,5.569-9.314,8.714-14.292
		c3.145-4.977,6.568-10.424,10.271-16.347c3.7-5.735,6.984-10.805,9.853-15.207c2.865-4.403,5.468-8.214,7.798-11.436
		c3.255,0.226,6.327,0.333,9.215,0.333c1.997,0,4.948-0.09,8.854-0.274c3.903-0.183,8.871-0.457,14.903-0.824
		c2.109-0.069,4.743-0.197,7.91-0.382c3.163-0.183,6.929-0.439,11.296-0.771L587.167,518.043z"/>
	<g>
		<path d="M595.903,600.238c0,3.146-1.114,5.837-3.343,8.065s-4.919,3.343-8.065,3.343s-5.837-1.114-8.065-3.343
			s-3.343-4.919-3.343-8.065s1.114-5.837,3.343-8.065s4.919-3.343,8.065-3.343s5.837,1.114,8.065,3.343
			S595.903,597.089,595.903,600.238z M593.384,600.238c0-2.454-0.868-4.561-2.604-6.325c-1.735-1.765-3.831-2.646-6.284-2.646
			c-2.454,0-4.55,0.883-6.285,2.646s-2.604,3.871-2.604,6.325c0,2.453,0.869,4.561,2.604,6.325s3.831,2.645,6.285,2.645
			c2.453,0,4.549-0.882,6.284-2.645C592.516,604.801,593.384,602.691,593.384,600.238z M590.906,605.646h-3.577l-3.439-4.169h-1.135
			v4.169h-2.796v-11.356h4.313c0.799,0,1.442,0.031,1.925,0.092c0.481,0.062,0.963,0.221,1.438,0.476
			c0.519,0.29,0.898,0.642,1.142,1.056s0.362,0.927,0.362,1.544c0,0.826-0.234,1.508-0.7,2.044s-1.073,0.954-1.82,1.254
			L590.906,605.646z M586.025,597.658c0-0.233-0.049-0.452-0.15-0.647c-0.102-0.198-0.271-0.358-0.509-0.482
			c-0.221-0.121-0.473-0.198-0.759-0.229s-0.609-0.047-0.97-0.047h-0.885v3.191h0.673c0.466,0,0.867-0.033,1.2-0.099
			s0.603-0.176,0.804-0.333c0.202-0.148,0.351-0.333,0.447-0.552C585.977,598.241,586.025,597.976,586.025,597.658z"/>
	</g>
</g>
</svg>
